<svg xmlns="http://www.w3.org/2000/svg" xmlns:xlink="http://www.w3.org/1999/xlink" width="1920" height="373.51" viewBox="0 0 1920 373.51">
  <defs>
    <clipPath id="clip-path">
      <rect id="Rectángulo_6401" data-name="Rectángulo 6401" width="1920" height="373.51" transform="translate(3.77 1.14)" fill="none"/>
    </clipPath>
  </defs>
  <g id="Grupo_44691" data-name="Grupo 44691" transform="translate(-3.771 -1.14)">
    <g id="Grupo_44690" data-name="Grupo 44690" clip-path="url(#clip-path)">
      <path id="Trazado_62792" data-name="Trazado 62792" d="M112.208,862.464S-207.185,633.1-61.639,333.765,347.348,491.3,530.977,68.808,755.74-677.125,1244.583-543.708s288.459,483.551,544.3,518.717,457.993,161.966,340.747,436.152S2303.481,865.4,2303.481,865.4Z" fill="#97c7fa"/>
      <path id="Trazado_62793" data-name="Trazado 62793" d="M1200.859,954s-319.392-229.365-173.846-528.7S1436,582.846,1619.629,160.348s224.763-745.932,713.606-612.515,288.459,483.551,544.3,518.717S3335.531,228.516,3218.286,502.7s173.847,454.243,173.847,454.243Z" fill="#00448c" opacity="0.7"/>
      <path id="Trazado_62794" data-name="Trazado 62794" d="M-627.5,1138.956s-319.392-229.365-173.846-528.7S-392.358,767.8-208.729,345.3,16.034-400.632,504.877-267.215s288.459,483.551,544.3,518.717,457.992,161.966,340.747,436.151S1563.775,1141.9,1563.775,1141.9Z" fill="#5e9af2" opacity="0.7"/>
      <path id="Trazado_62795" data-name="Trazado 62795" d="M-1013.14,1198.084s-319.393-229.365-173.847-528.7S-778,826.926-594.371,404.428-369.608-341.5,119.235-208.087s288.459,483.551,544.3,518.717S1121.532,472.6,1004.286,746.781s173.847,454.243,173.847,454.243Z" fill="#00448c" opacity="0.7"/>
      <path id="Trazado_62808" data-name="Trazado 62808" d="M1325.464,516.569h-121.7c5.861-4.325,26.9-19.41,45.948-27.556,7.9-3.374,15.449-5.557,21.441-5.288C1290.156,484.578,1316.793,508.347,1325.464,516.569Z" fill="#fc801c"/>
      <path id="Trazado_62809" data-name="Trazado 62809" d="M1286.778,516.569h-121.7c8.288-6.118,46.936-33.759,67.388-32.844,5.336.241,11.273,2.288,17.246,5.288C1265.011,496.7,1280.539,510.653,1286.778,516.569Z" fill="#fb9d39"/>
      <path id="Trazado_62810" data-name="Trazado 62810" d="M1919.742,518.229H1107.581a.8.8,0,0,1-.8-.8h0a.8.8,0,0,1,.8-.8h812.161a.8.8,0,0,1,.8.8h0A.8.8,0,0,1,1919.742,518.229Z" fill="#1e2e50"/>
      <path id="Trazado_62811" data-name="Trazado 62811" d="M1253.633,446.5a1.025,1.025,0,0,0-1.224.768l-9.277,40.518c-2.506.074-5.054,2.787-5.919,6.567l-.884,3.86a5.433,5.433,0,0,0-.121.65l10.3,2.359a2.7,2.7,0,0,0,.2-.632l.884-3.86c.863-3.769-.242-7.312-2.473-8.483l9.279-40.523A1.025,1.025,0,0,0,1253.633,446.5Z" fill="#0d458d"/>
      <path id="Trazado_62812" data-name="Trazado 62812" d="M1226.671,498.8s21.4-5.542,28.231-1.031-3.481,9.281-3.481,9.281Z" fill="#fb9d39"/>
      <g id="Grupo_44689" data-name="Grupo 44689">
        <path id="Trazado_62928" data-name="Trazado 62928" d="M2080.418,423.907H1023.894a1.034,1.034,0,0,1-1.031-1.03h0a1.034,1.034,0,0,1,1.031-1.031H2080.418a1.034,1.034,0,0,1,1.031,1.031h0A1.034,1.034,0,0,1,2080.418,423.907Z" fill="#0f2b4e"/>
      </g>
    </g>
  </g>
</svg>
